{"title":"Baywatch 2017 UNCENSORED. HD-TS x264-P2P","magnet":"magnet:?xt=urn:btih:1d62155b54d128a6e92a4d8afb5ae509b3e2f276&dn=Baywatch+2017+UNCENSORED.+HD-TS+x264-P2P&tr=udp%3A%2F%2Ftracker.leechers-paradise.org%3A6969&tr=udp%3A%2F%2Fzer0day.ch%3A1337&tr=udp%3A%2F%2Fopen.demonii.com%3A1337&tr=udp%3A%2F%2Ftracker.coppersurfer.tk%3A6969&tr=udp%3A%2F%2Fexodus.desync.com%3A6969","uploader":"makintos13","categoryP":"video","categoryS":"movies","size":"1863491012","seeders":"209","leechers":"541","description":"screens:\r\n <a href=\"\nhttps://imgmak.com/zpz\" rel=\"nofollow\" target=\"_NEW\">\nhttps://imgmak.com/zpz</a>\r\n <a href=\"\nhttps://imgmak.com/zp7\" rel=\"nofollow\" target=\"_NEW\">\nhttps://imgmak.com/zp7</a>\r\n <a href=\"\nhttps://imgmak.com/zpk\" rel=\"nofollow\" target=\"_NEW\">\nhttps://imgmak.com/zpk</a>\r\n <a href=\"\nhttps://imgmak.com/zpm\" rel=\"nofollow\" target=\"_NEW\">\nhttps://imgmak.com/zpm</a>\r\n <a href=\"\nhttps://imgmak.com/zpu\" rel=\"nofollow\" target=\"_NEW\">\nhttps://imgmak.com/zpu</a>\r\n <a href=\"\nhttps://imgmak.com/zp5\" rel=\"nofollow\" target=\"_NEW\">\nhttps://imgmak.com/zp5</a>\r\n\r\n <a href=\"\nhttp://www.imdb.com/title/tt1469304/\" rel=\"nofollow\" target=\"_NEW\">\nhttp://www.imdb.com/title/tt1469304/</a> \r\n\r\nDevoted lifeguard Mitch Buchannon butts heads with a brash new recruit, as they uncover a criminal plot that threatens the future of the bay. \r\nDirector: Seth Gordon \r\nWriters: Michael Berk (based on the series &quot;Baywatch&quot; created by), Douglas Schwartz (based on the series &quot;Baywatch&quot; created by) \r\nStars: Dwayne Johnson, Zac Efron, Alexandra Daddario \r\nGenres: Action | Comedy | Drama \r\nCountry: USA \r\n\r\nBaywatch 2017 UNCENSORED HD-TS x264-P2P \r\n\r\niNFORMATION: \r\n\r\nNote: Full Movie UNCENSORED \r\n\r\nFormat : Matroska \r\nFile size : 1.72 GiB \r\nDuration : 1 h 47 min \r\nOverall bit rate mode : Variable \r\nOverall bit rate : 2 288 kb/s \r\n\r\nVideo \r\nID : 1 \r\nFormat : AVC \r\nFormat/Info : Advanced Video Codec \r\nFormat profile : <a class=\"__cf_email__\" href=\"/cdn-cgi/l/email-protection\" data-cfemail=\"034b6a646b434f372d31\">[email&#xA0;protected]</a><script data-cfhash=\"f9e31\" type=\"text/javascript\">/* <![CDATA[ */!function(t,e,r,n,c,a,p){try{t=document.currentScript||function(){for(t=document.getElementsByTagName('script'),e=t.length;e--;)if(t[e].getAttribute('data-cfhash'))return t[e]}();if(t&&(c=t.previousSibling)){p=t.parentNode;if(a=c.getAttribute('data-cfemail')){for(e='',r='0x'+a.substr(0,2)|0,n=2;a.length-n;n+=2)e+='%'+('0'+('0x'+a.substr(n,2)^r).toString(16)).slice(-2);p.replaceChild(document.createTextNode(decodeURIComponent(e)),c)}p.removeChild(t)}}catch(u){}}()/* ]]> */</script> \r\nFormat settings, CABAC : Yes \r\nFormat settings, ReFrames : 4 frames \r\nCodec ID : V_MPEG4/ISO/AVC \r\nDuration : 1 h 47 min \r\nBit rate mode : Variable \r\nBit rate : 2 100 kb/s \r\nMaximum bit rate : 62.5 Mb/s \r\nWidth : 640 pixels \r\nHeight : 272 pixels \r\nDisplay aspect ratio : 2.35:1 \r\nFrame rate mode : Constant \r\nFrame rate : 30.000 FPS \r\nColor space : YUV \r\nChroma subsampling : 4:2:0 \r\nBit depth : 8 bits \r\nScan type : Progressive \r\nBits/(Pixel*Frame) : 0.402 \r\nStream size : 1.57 GiB (92%) \r\n\r\nAudio \r\nID : 2 \r\nFormat : MPEG Audio \r\nFormat version : Version 1 \r\nFormat profile : Layer 3 \r\nCodec ID : A_MPEG/L3 \r\nCodec ID/Hint : MP3 \r\nDuration : 1 h 47 min \r\nBit rate mode : Constant \r\nBit rate : 192 kb/s \r\nChannel(s) : 2 channels \r\nSampling rate : 44.1 kHz \r\nFrame rate : 38.281 FPS (1152 spf) \r\nCompression mode : Lossy \r\nDelay relative to video : 7 ms \r\nStream size : 148 MiB (8%) \r\nWriting library : LAME3.99.5 \r\nDefault : Yes \r\nForced : No","last_updated":"2017-06-07T12:03:06.686Z","parsed":{"xt":"urn:btih:1d62155b54d128a6e92a4d8afb5ae509b3e2f276","dn":"Baywatch 2017 UNCENSORED. HD-TS x264-P2P","tr":["udp://exodus.desync.com:6969","udp://open.demonii.com:1337","udp://tracker.coppersurfer.tk:6969","udp://tracker.leechers-paradise.org:6969","udp://zer0day.ch:1337"],"infoHash":"1d62155b54d128a6e92a4d8afb5ae509b3e2f276","infoHashBuffer":{"type":"Buffer","data":[29,98,21,91,84,209,40,166,233,42,77,138,251,90,229,9,179,226,242,118]},"name":"Baywatch 2017 UNCENSORED. HD-TS x264-P2P","announce":["udp://exodus.desync.com:6969","udp://open.demonii.com:1337","udp://tracker.coppersurfer.tk:6969","udp://tracker.leechers-paradise.org:6969","udp://zer0day.ch:1337"],"urlList":[]}}